<svg xmlns="http://www.w3.org/2000/svg" viewBox="0 0 512 512">
  <defs>
    <linearGradient id="g" x1="0" y1="0" x2="1" y2="1">
      <stop offset="0" stop-color="#2563eb"/>
      <stop offset="1" stop-color="#16a34a"/>
    </linearGradient>
  </defs>
  <rect x="64" y="64" width="384" height="384" rx="96" fill="url(#g)"/>
  <path d="M256 150c-58.5 0-106 47.5-106 106 0 52.1 38.1 95.3 88 104.1V392a18 18 0 0 0 36 0v-31.9c49.9-8.8 88-52 88-104.1 0-58.5-47.5-106-106-106zm0 176c-38.7 0-70-31.3-70-70s31.3-70 70-70 70 31.3 70 70-31.3 70-70 70z" fill="#ffffff" opacity="0.95"/>
</svg>
